<svg width="1900" height="930" viewBox="0 0 1900 930" fill="none" xmlns="http://www.w3.org/2000/svg">
<g clip-path="url(#clip0_46_12)">
<rect width="1900" height="930" fill="#FFE8CF"/>
<rect x="-102.412" y="801.694" width="2207.77" height="239.71" transform="rotate(-24.9008 -102.412 801.694)" fill="#8696FE"/>
<path d="M693.648 600.741L665.303 536.736L715.043 514.708L720.915 527.966L686.261 543.313L702.863 580.801L738.431 565.049L744.303 578.308L693.648 600.741ZM689.707 571.097L684.119 558.479L722.064 541.675L727.652 554.293L689.707 571.097ZM763.921 569.62L735.576 505.615L749.474 499.46L791.556 525.336L782.006 529.456L791.442 480.874L804.975 474.881L833.32 538.886L818.233 545.567L809.243 525.268C806.895 519.965 804.871 515.065 803.171 510.568C801.505 505.983 800.022 501.318 798.722 496.571L802.554 500.779L794.617 537.433L788.582 540.106L756.288 521.269L755.839 515.562C758.426 519.593 760.813 523.749 763.001 528.03C765.222 532.223 767.561 537.093 770.018 542.64L779.007 562.938L763.921 569.62ZM892.412 512.716L864.067 448.712L895.612 434.742C900.488 432.582 904.886 431.4 908.806 431.195C912.698 430.93 916.024 431.608 918.784 433.229C921.577 434.762 923.703 437.175 925.161 440.467C926.753 444.063 927.141 447.573 926.325 450.997C925.481 454.36 923.358 457.306 919.957 459.833L919.319 458.146C922.393 457.514 925.351 457.444 928.194 457.935C931.07 458.338 933.648 459.384 935.927 461.072C938.239 462.673 940.044 464.936 941.34 467.862C942.878 471.336 943.531 474.62 943.296 477.713C943.035 480.746 942.097 483.567 940.483 486.178C938.841 488.727 936.72 491.016 934.118 493.043C931.55 494.982 928.65 496.667 925.419 498.098L892.412 512.716ZM901.291 493.253L919.487 485.195C921.376 484.359 922.884 483.399 924.009 482.318C925.168 481.148 925.914 479.87 926.248 478.483C926.615 477.008 926.448 475.478 925.746 473.893C925.017 472.247 923.949 471.152 922.542 470.609C921.196 470.039 919.666 469.877 917.953 470.126C916.274 470.286 914.581 470.744 912.875 471.5L895.136 479.355L901.291 493.253ZM889.994 467.743L905.629 460.819C907.336 460.063 908.721 459.158 909.785 458.103C910.883 456.961 911.565 455.784 911.831 454.573C912.13 453.273 911.983 451.953 911.389 450.612C910.498 448.601 909.001 447.441 906.896 447.134C904.791 446.826 902.337 447.293 899.533 448.535L884.446 455.217L889.994 467.743ZM968.042 479.222L939.697 415.218L971.79 401.005C976.301 399.007 980.655 398.137 984.851 398.393C989.021 398.588 992.725 399.791 995.964 402.002C999.204 404.213 1001.71 407.33 1003.5 411.353C1005.3 415.437 1005.92 419.54 1005.34 423.661C1004.79 427.695 1003.2 431.426 1000.56 434.854C997.957 438.195 994.522 440.81 990.255 442.699L972.974 450.353L982.854 472.663L968.042 479.222ZM1008.09 461.487L976.825 440.773L991.905 431.36L1026.01 453.55L1008.09 461.487ZM967.71 438.466L983.437 431.501C985.143 430.745 986.475 429.718 987.431 428.42C988.448 427.095 989.039 425.63 989.204 424.026C989.429 422.395 989.164 420.726 988.408 419.019C987.679 417.373 986.618 416.13 985.225 415.289C983.865 414.359 982.306 413.883 980.546 413.861C978.847 413.811 977.022 414.218 975.072 415.082L960.259 421.642L967.71 438.466ZM1043.76 445.689L1015.42 381.685L1065.16 359.657L1071.03 372.915L1036.37 388.262L1052.98 425.75L1088.54 409.998L1094.42 423.256L1043.76 445.689ZM1039.82 416.046L1034.23 403.428L1072.18 386.624L1077.77 399.242L1039.82 416.046ZM1132.87 406.227L1077.37 354.249L1093.55 347.082L1120.96 373.659C1122.16 374.879 1123.39 376.086 1124.64 377.279C1125.87 378.411 1127.13 379.604 1128.42 380.858C1129.7 382.112 1130.94 383.423 1132.13 384.792C1133.38 386.134 1134.64 387.581 1135.91 389.132L1132.8 390.509C1132.44 388.045 1132.19 385.675 1132.06 383.401C1131.9 381.065 1131.75 378.76 1131.62 376.486C1131.55 374.184 1131.45 371.747 1131.33 369.175L1129.49 331.168L1145.49 324.082L1146.77 400.072L1132.87 406.227ZM1187.79 381.905L1159.44 317.901L1209.18 295.873L1215.06 309.131L1180.4 324.478L1197 361.966L1232.57 346.214L1238.44 359.472L1187.79 381.905ZM1183.85 352.262L1178.26 339.644L1216.21 322.839L1221.79 335.457L1183.85 352.262Z" fill="white"/>
</g>
<defs>
<clipPath id="clip0_46_12">
<rect width="1900" height="930" fill="white"/>
</clipPath>
</defs>
</svg>
